<svg width="15" height="15" viewBox="0 0 15 15" fill="none" xmlns="http://www.w3.org/2000/svg">
<path fill-rule="evenodd" clip-rule="evenodd" d="M5.1781 10L7.3501 12.172L9.5221 10H12.3501V2H2.3501V10H5.1781ZM7.3501 15L4.3501 12H2.3501C1.81966 12 1.31096 11.7893 0.935884 11.4142C0.560811 11.0391 0.350098 10.5304 0.350098 10V2C0.350098 1.46957 0.560811 0.960859 0.935884 0.585786C1.31096 0.210714 1.81966 0 2.3501 0H12.3501C12.8805 0 13.3892 0.210714 13.7643 0.585786C14.1394 0.960859 14.3501 1.46957 14.3501 2V10C14.3501 10.5304 14.1394 11.0391 13.7643 11.4142C13.3892 11.7893 12.8805 12 12.3501 12H10.3501L7.3501 15Z" fill="#F9F5FF"/>
</svg>
