<svg width="4" height="14" viewBox="0 0 4 14" fill="none" xmlns="http://www.w3.org/2000/svg">
<path d="M2.25 14C1.78587 14 1.34075 13.8156 1.01256 13.4874C0.684375 13.1592 0.5 12.7141 0.5 12.25C0.5 11.7859 0.684375 11.3408 1.01256 11.0126C1.34075 10.6844 1.78587 10.5 2.25 10.5C2.71413 10.5 3.15925 10.6844 3.48744 11.0126C3.81563 11.3408 4 11.7859 4 12.25C4 12.7141 3.81563 13.1592 3.48744 13.4874C3.15925 13.8156 2.71413 14 2.25 14ZM2.25 8.75C1.78587 8.75 1.34075 8.56563 1.01256 8.23744C0.684375 7.90925 0.5 7.46413 0.5 7C0.5 6.53587 0.684375 6.09075 1.01256 5.76256C1.34075 5.43437 1.78587 5.25 2.25 5.25C2.71413 5.25 3.15925 5.43437 3.48744 5.76256C3.81563 6.09075 4 6.53587 4 7C4 7.46413 3.81563 7.90925 3.48744 8.23744C3.15925 8.56563 2.71413 8.75 2.25 8.75ZM0.5 1.75C0.5 2.21413 0.684375 2.65925 1.01256 2.98744C1.34075 3.31563 1.78587 3.5 2.25 3.5C2.71413 3.5 3.15925 3.31563 3.48744 2.98744C3.81563 2.65925 4 2.21413 4 1.75C4 1.28587 3.81563 0.840752 3.48744 0.512563C3.15925 0.184374 2.71413 0 2.25 0C1.78587 0 1.34075 0.184374 1.01256 0.512563C0.684375 0.840752 0.5 1.28587 0.5 1.75Z" fill="#F9F5FF"/>
</svg>
