<svg width="201" height="100" viewBox="0 0 201 100" fill="none" xmlns="http://www.w3.org/2000/svg">
<path fill-rule="evenodd" clip-rule="evenodd" d="M106.264 6.09163L112.401 12.1833L116.769 7.85366C119.168 5.46232 121.314 3.52409 121.567 3.52409C121.971 3.52409 121.996 4.27925 121.996 13.9453C121.996 25.1468 121.971 25.2978 120.658 26.7327C120.33 27.0851 119.673 27.5885 119.193 27.8654C118.385 28.2933 117.451 28.3185 100.027 28.243C84.2705 28.1675 81.6188 28.0919 80.9626 27.7647C79.7503 27.1354 78.614 25.6754 78.3109 24.3413C78.1596 23.6365 78.0586 19.2062 78.0586 13.4419C78.0586 5.16026 78.1091 3.75063 78.4374 3.62478C78.6645 3.52409 80.2807 4.93372 83.1342 7.77816C85.5077 10.1443 87.5279 12.0825 87.6289 12.0825C87.7045 12.0825 90.5076 9.36398 93.8407 6.04129C97.1738 2.71859 99.9516 0 100.002 0C100.078 0 102.881 2.74375 106.264 6.09163ZM37.7068 46.4675C40.2319 48.2295 39.0956 51.6026 35.9643 51.6026C34.1715 51.6026 33.3383 50.8474 33.1613 49.1357C33.0604 47.852 33.0856 47.7764 34.0958 46.8199C35.3838 45.6116 36.3179 45.511 37.7068 46.4675ZM162.575 47.1975C162.878 47.3989 163.257 47.9778 163.408 48.4309C164.141 50.6712 161.212 52.3577 159.52 50.6964C158.636 49.7902 158.611 48.305 159.494 47.4492C160.201 46.7192 161.716 46.5934 162.575 47.1975ZM82.3259 53.6667C83.7148 54.0191 85.432 55.6301 85.8864 56.9894C86.3917 58.5249 86.1138 60.6897 85.2806 61.7721C83.9926 63.4838 81.2653 64.3396 77.8313 64.1382C75.8366 64.0124 75.7858 64.0375 75.7858 64.5913C75.7858 64.9186 76.2153 65.6234 76.7707 66.2275L77.7808 67.2596L80.6343 67.1085C81.7627 67.0541 82.9573 66.9866 83.7155 66.9437C84.009 66.9271 84.2374 66.9142 84.3714 66.9071L85.2551 66.8316L85.3311 68.0651C85.4572 70.0788 85.3059 70.3054 83.7148 70.8592C82.6037 71.2367 81.5936 71.3374 79.4728 71.3374C77.0233 71.3374 76.4928 71.2619 75.2809 70.7081C72.5286 69.4243 70.9628 66.9323 70.7862 63.4586C70.3822 56.0077 75.2304 51.8795 82.3259 53.6667ZM103.664 53.4905C104.471 53.717 105.482 54.1198 105.911 54.4218C106.441 54.7994 106.719 54.8749 106.795 54.6736C106.997 54.0191 107.678 53.6163 108.562 53.6163C108.644 53.6163 108.722 53.6153 108.797 53.6143C109.149 53.6097 109.415 53.6062 109.618 53.7183C110.257 54.0717 110.257 55.5744 110.254 61.8136V63.0034C110.229 71.7153 110.228 71.8925 109.648 73.3763C108.865 75.3398 107.174 77.0263 105.381 77.6052C102.3 78.6121 96.5425 77.857 95.9619 76.3466C95.6588 75.4908 95.684 74.937 96.0628 74.4084C96.3911 73.9553 96.4668 73.9553 97.9061 74.3832C100.078 75.0377 103.613 75.0125 104.497 74.3581C105.759 73.4015 106.189 72.596 106.29 70.834L106.391 69.1726L105.052 69.8774C103.26 70.7836 100.229 70.8592 98.6132 70.0285C95.4062 68.3671 93.765 63.811 94.8256 59.4059C95.6336 56.0077 97.5778 53.9688 100.659 53.2891C101.618 53.0625 102.199 53.1129 103.664 53.4905ZM122.779 53.4653C124.572 53.8681 125.632 54.6232 126.364 55.9573C126.87 56.9642 126.92 57.3921 126.996 63.4838C127.072 68.0147 126.996 70.0788 126.794 70.4816C126.541 70.9347 126.314 71.0102 125.203 70.9347C124.117 70.8843 123.839 70.7585 123.637 70.2802C123.511 69.9781 123.334 69.7516 123.259 69.8019C121.567 70.8088 119.951 71.2871 118.208 71.2871C116.012 71.2871 115.153 70.9598 113.966 69.6257C111.315 66.6303 112.855 62.2 116.946 60.9917C118.284 60.6142 121.769 60.6645 122.905 61.0924C123.284 61.2435 123.309 61.0924 123.208 59.5569C123.031 57.4677 122.476 56.7628 120.834 56.5363C119.597 56.3853 116.112 56.788 115.355 57.1656C115.102 57.3166 114.673 57.3418 114.421 57.2663C114.016 57.1404 113.916 56.8887 113.916 55.8818C113.916 54.7743 113.991 54.598 114.623 54.2708C115.229 53.9688 117.047 53.5156 118.713 53.2639C120.077 53.0877 121.415 53.1381 122.779 53.4653ZM141.616 53.3898C142.298 53.566 143.081 54.0191 143.561 54.4722L144.344 55.2777L145.985 54.4218C146.894 53.9688 148.409 53.4653 149.343 53.2891C150.884 53.0374 151.212 53.0625 152.475 53.4905C154.167 54.0946 155.278 55.328 155.606 56.939C155.707 57.5432 155.808 60.7652 155.833 64.1131C155.833 69.8019 155.808 70.255 155.353 70.7081C154.975 71.0857 154.621 71.1612 153.788 71.0857C153.624 71.0706 153.474 71.0599 153.337 71.05C152.853 71.0154 152.519 70.9915 152.29 70.825C151.781 70.456 151.784 69.3865 151.791 65.9468C151.792 65.5022 151.793 65.018 151.793 64.4906C151.793 58.6507 151.768 58.2228 151.263 57.4173L150.757 56.5866L148.813 56.6873C147.525 56.7628 146.566 56.9894 145.985 57.3166L145.101 57.8201L145.026 64.2893V64.3025C144.975 70.7082 144.974 70.7586 144.394 70.9598C144.091 71.0605 143.283 71.0857 142.576 71.0102L141.313 70.8592L141.187 64.4403L141.18 64.0508C141.087 59.0636 141.055 57.3756 140.256 56.8527C139.848 56.5851 139.238 56.6225 138.317 56.6791L138.182 56.6873C137.071 56.7628 135.859 57.0146 135.329 57.2663L134.369 57.7445V63.8865C134.369 67.612 134.268 70.2047 134.117 70.5067C133.89 70.8843 133.561 70.985 132.324 70.985C130.935 70.985 130.809 70.9347 130.556 70.3054C130.405 69.9026 130.329 66.7058 130.379 61.8727L130.387 60.9418C130.433 55.5257 130.445 54.1046 131.074 53.738C131.298 53.6076 131.6 53.6106 132.01 53.6148C132.085 53.6155 132.165 53.6163 132.248 53.6163C133.334 53.6163 133.864 53.9436 133.864 54.6736C133.864 54.887 133.861 55.0218 133.924 55.069C134.027 55.1468 134.31 54.9871 135.083 54.5508L135.178 54.4974C136.389 53.8177 138.637 53.1632 139.748 53.1381C140.152 53.1129 140.985 53.2388 141.616 53.3898ZM178.585 53.415C179.847 53.7674 181.236 55.1015 181.615 56.3349C181.817 56.9139 181.968 59.6073 182.019 63.7355C182.12 70.0033 182.12 70.2047 181.615 70.7081C180.958 71.3626 179.19 71.4129 178.357 70.834C177.802 70.4564 177.802 70.3809 177.802 64.2138C177.802 58.1725 177.777 57.9459 177.246 57.2663C176.716 56.6118 176.64 56.5866 174.772 56.6873C173.357 56.7628 172.549 56.9642 171.741 57.4173L170.605 58.0214V64.2641C170.605 70.1795 170.58 70.5571 170.1 70.8843C169.519 71.3122 167.323 71.2116 166.868 70.7585C166.388 70.2802 166.439 54.598 166.919 54.0443C167.676 53.1129 170.226 53.6918 170.226 54.7743C170.226 54.9261 170.226 55.0271 170.276 55.0667C170.374 55.1453 170.667 54.9827 171.539 54.4974C173.736 53.2639 176.64 52.8108 178.585 53.415ZM194.998 53.9436C196.639 54.7239 196.69 54.7239 196.892 54.2456C197.068 53.8681 197.397 53.717 198.331 53.6667C199.013 53.6163 199.72 53.717 199.922 53.8932C200.503 54.3715 200.452 71.1612 199.872 72.8981C199.089 75.1636 197.952 76.4473 195.73 77.4794C193.483 78.5366 189.115 78.3604 186.589 77.1018C185.958 76.7997 185.882 76.6235 185.882 75.4908C185.882 73.9553 186.084 73.8546 188.104 74.3581C188.938 74.5846 190.503 74.7608 191.589 74.7608C194.72 74.7608 195.907 73.7288 196.16 70.7081L196.311 69.2733L195.049 69.8774C193.483 70.6578 191.69 70.8592 189.822 70.4816C188.584 70.2299 188.13 69.9781 187.019 68.8957C184.897 66.8065 184.089 63.962 184.594 60.3624C184.923 57.9459 185.63 56.4356 187.044 55.0008C189.14 52.9367 192.119 52.5339 194.998 53.9436ZM13.2886 53.8429C14.5006 54.3967 16.0916 56.058 16.6974 57.4928C16.9501 58.0466 17.2784 59.3807 17.4297 60.438C18.0611 64.9941 16.243 69.3237 13.0612 70.7585C11.4957 71.4633 8.84443 71.3878 7.17769 70.6074L5.83925 70.0033V77.5297H3.49102C2.00121 77.5297 1.04153 77.429 0.83971 77.2277C0.435724 76.8249 0.410155 55.1015 0.789255 54.3463C1.0163 53.9436 1.34461 53.8681 2.96055 53.8681C4.7282 53.8681 4.85468 53.9184 5.13219 54.4974C5.35958 55.026 5.48572 55.0763 5.81402 54.8246C7.17769 53.7422 8.26351 53.415 10.5108 53.3898C11.7231 53.3898 12.6068 53.5156 13.2886 53.8429ZM55.1808 53.717C55.6352 53.9184 56.2414 54.3212 56.5444 54.6232L57.0493 55.177L58.7665 54.3463C60.3825 53.5408 60.6603 53.4905 63.0338 53.4905C65.3067 53.4905 65.635 53.5408 66.3925 54.0946C66.8217 54.447 67.4278 55.177 67.7054 55.756C68.1854 56.7125 68.2106 57.3166 68.2106 63.7355C68.2106 69.8271 68.1601 70.7081 67.8066 70.834C67.5792 70.9095 66.5691 70.985 65.5589 70.985L65.2283 70.986C64.4111 70.9899 63.8813 70.9924 63.5377 70.7412C62.9032 70.2776 62.9042 68.9493 62.907 65.1685L62.9076 64.0566C62.908 59.5957 62.908 58.1663 62.2483 57.7311C61.937 57.5258 61.4792 57.5417 60.8059 57.5651L60.7108 57.5683C59.9785 57.5935 59.0696 57.7697 58.6908 57.9459L57.9838 58.2732L57.9078 64.3144C57.8573 68.0651 57.7312 70.4564 57.5542 70.6578C57.2259 71.0605 53.7666 71.1109 53.0344 70.7333C52.5799 70.4816 52.5547 70.1292 52.5547 64.4906C52.5547 59.63 52.5547 58.1699 51.8875 57.7399C51.6008 57.5553 51.191 57.5606 50.6064 57.5681L50.5849 57.5683C49.903 57.5683 48.9185 57.7194 48.4132 57.8956L47.5044 58.1976V64.2893C47.5044 68.6944 47.4287 70.4564 47.2013 70.6829C46.7973 71.0857 42.9085 71.0857 42.5045 70.6829C42.1509 70.3305 42.0753 54.7239 42.4288 54.1701C42.6814 53.7422 44.3983 53.4905 45.5598 53.717C46.1407 53.8177 46.5194 54.0694 46.6964 54.4974L46.9991 55.1267L48.3123 54.4722C49.0446 54.0946 49.9283 53.717 50.2818 53.5912C51.3424 53.2639 54.2968 53.3394 55.1808 53.717ZM24.0963 53.8429C24.3486 53.8681 24.6012 54.0191 24.6517 54.1701C24.6684 54.2285 24.6991 54.3201 24.738 54.4302C24.8167 54.6523 24.9292 54.9497 25.0305 55.2022L25.2831 55.9322L26.2172 55.1267C26.7224 54.6736 27.5052 54.145 27.9596 53.9688C28.995 53.5408 30.8888 53.5156 31.2928 53.9184C31.6211 54.2456 31.722 57.5935 31.394 58.0466C31.2928 58.1976 30.1817 58.399 28.8941 58.4745C28.6421 58.4902 28.4089 58.5024 28.1931 58.5137C27.1186 58.5699 26.4753 58.6035 26.0914 58.9355C25.5193 59.4301 25.5231 60.587 25.5326 63.4679C25.534 63.867 25.5354 64.2993 25.5354 64.7675C25.5354 68.7951 25.4597 70.4564 25.2326 70.6829C24.7526 71.1612 21.1164 71.0857 20.6367 70.5823C20.2832 70.255 20.2327 69.1726 20.2327 62.6027C20.2327 58.4242 20.3084 54.7491 20.3841 54.447C20.5863 53.7422 21.0155 53.6667 24.0963 53.8429ZM37.9846 53.8429L38.6664 54.1198V62.2503C38.6664 68.2413 38.5904 70.4564 38.3634 70.6829C37.9846 71.0605 34.525 71.0857 33.8432 70.7333C33.3887 70.4816 33.3635 70.1292 33.3635 62.4769C33.3635 58.0969 33.4644 54.3715 33.5656 54.2205C33.6666 54.0694 33.9188 53.8932 34.121 53.8177C34.8533 53.5912 37.328 53.5912 37.9846 53.8429ZM162.904 54.0946C163.055 54.4218 163.156 57.5432 163.156 62.5272V70.4816L162.525 70.8843C161.716 71.4129 159.924 71.2367 159.444 70.5823C159.166 70.2047 159.116 68.5433 159.166 62.0993L159.177 60.75V60.738C159.217 55.5824 159.227 54.1433 159.876 53.7516C160.127 53.5999 160.473 53.6053 160.954 53.6127C161.066 53.6145 161.185 53.6163 161.312 53.6163C162.373 53.6163 162.676 53.717 162.904 54.0946ZM84.1948 80.7266C85.9369 81.2803 86.1391 81.5572 86.1391 83.5207C86.1138 87.2209 84.1188 92.2302 81.5179 95.0746C79.5737 97.1639 78.2605 96.7863 79.1697 94.4201C81.0635 89.4613 81.8462 86.3148 81.4927 85.1317C81.1392 84.0744 77.7051 83.8479 71.7456 84.452C70.0792 84.6282 69.5992 84.3765 69.8265 83.4703C70.1044 82.3376 74.1194 80.6762 77.5534 80.2986C79.6998 80.0469 82.6794 80.2483 84.1948 80.7266ZM5.10696 83.7976C9.829 86.2141 16.5713 88.8823 20.3589 89.864C20.6183 89.9401 21.1549 90.0806 21.7675 90.241C22.1681 90.3459 22.6011 90.4593 23.0105 90.5688C25.1566 91.1226 29.1211 91.9029 33.2373 92.5574C37.2775 93.1867 50.7618 93.1867 54.5746 92.5574C60.6855 91.5254 67.4023 90.0402 68.8416 89.3857C69.1195 89.2599 70.0287 88.9075 70.8619 88.6557C71.6951 88.3789 73.2609 87.7999 74.3467 87.372C77.3011 86.1889 78.5635 86.4154 78.5635 88.102C78.5635 88.7313 78.2857 89.0333 76.6193 90.2164C72.6296 93.0105 66.3673 95.8046 60.2563 97.5163C48.5902 100.763 38.1107 100.814 26.5455 97.7428C18.1368 95.5025 9.27364 90.9212 2.63259 85.4086C0.410156 83.571 -0.0947418 82.7151 0.662775 82.1362C0.940621 81.96 1.16801 81.809 1.16801 81.809C1.19324 81.809 2.96055 82.69 5.10696 83.7976ZM77.5534 57.4677C76.8464 57.8201 75.7858 59.28 75.7858 59.9093C75.7858 60.438 76.4928 60.6645 78.134 60.6645C80.4826 60.6645 81.821 59.5066 81.0887 58.1221C80.5835 57.1908 78.7654 56.8635 77.5534 57.4677ZM98.5627 62.3762C98.411 59.2549 99.3455 57.2159 101.189 56.637C102.174 56.3349 104.244 56.5866 105.406 57.1656L106.34 57.6439V66.152L105.406 66.7309C104.068 67.5113 101.391 67.5616 100.356 66.8065C99.2446 66.0009 98.6636 64.5661 98.5627 62.3762ZM118.966 63.6348C118.486 63.6851 117.804 63.9369 117.451 64.1886C116.92 64.5913 116.819 64.8682 116.819 66.0513C116.819 67.1337 116.92 67.5113 117.324 67.8133C118.335 68.5685 121.617 68.1154 122.804 67.033C123.36 66.5547 123.461 63.9872 122.956 63.8362C122.425 63.66 119.9 63.5341 118.966 63.6348ZM188.534 62.049C188.534 59.5318 189.115 57.8956 190.251 57.1404C190.933 56.6873 191.337 56.637 192.826 56.7125C193.811 56.7628 194.948 56.9894 195.427 57.2411L196.235 57.669V66.2023L195.175 66.7309C193.811 67.4358 191.337 67.4861 190.352 66.8316C189.19 66.0765 188.534 64.3396 188.534 62.049ZM6.97552 57.7194L5.96539 58.0466L5.88971 62.2252L5.83925 66.3785L6.69768 66.8065C7.17769 67.033 8.13703 67.2092 8.81886 67.2092C11.1422 67.2092 12.152 65.6989 12.152 62.2755C12.152 58.9528 11.344 57.6439 9.19762 57.4928C8.54101 57.4425 7.53122 57.5432 6.97552 57.7194Z" fill="#F9F5FF"/>
</svg>
