<svg width="18" height="18" viewBox="0 0 18 18" fill="none" xmlns="http://www.w3.org/2000/svg">
<path fill-rule="evenodd" clip-rule="evenodd" d="M12.8259 14.4463C11.2016 15.6608 9.17766 16.2151 7.16126 15.9975C5.14485 15.7799 3.2857 14.8066 1.95798 13.2735C0.630248 11.7404 -0.0675009 9.76134 0.00515371 7.73453C0.0778083 5.70772 0.915473 3.78366 2.34957 2.34957C3.78366 0.915473 5.70772 0.0778083 7.73453 0.00515371C9.76134 -0.0675009 11.7404 0.630248 13.2735 1.95798C14.8066 3.2857 15.7799 5.14485 15.9975 7.16126C16.2151 9.17766 15.6608 11.2016 14.4463 12.8259L18 16.3784L16.3796 18L12.827 14.4474L12.8259 14.4463ZM13.7518 8.0219C13.7518 9.54157 13.1481 10.999 12.0736 12.0736C10.999 13.1481 9.54157 13.7518 8.0219 13.7518C6.50223 13.7518 5.0448 13.1481 3.97023 12.0736C2.89566 10.999 2.29197 9.54157 2.29197 8.0219C2.29197 6.50223 2.89566 5.0448 3.97023 3.97023C5.0448 2.89566 6.50223 2.29197 8.0219 2.29197C9.54157 2.29197 10.999 2.89566 12.0736 3.97023C13.1481 5.0448 13.7518 6.50223 13.7518 8.0219Z" fill="#F9F5FF"/>
</svg>
