<svg width="164" height="70" viewBox="0 0 164 70" fill="none" xmlns="http://www.w3.org/2000/svg">
<path d="M12.2083 0H0.75V31.2658L7 37.625H22.6249V25.4366H12.2083V22.787H22.6249V10.5986H12.2083V0Z" fill="#F9F5FF"/>
<path d="M96.5827 0H85.1241V31.2658L91.3746 37.625H106.999V25.4366H96.5827V22.787H106.999V10.5986H96.5827V0Z" fill="#F9F5FF"/>
<path d="M25.7501 31.2656V10.5984H37.7292V25.4364H40.8542V10.5984H52.3125V25.4364H55.4375V10.5984H66.8959V37.6248H32L25.7501 31.2656Z" fill="#F9F5FF"/>
<path d="M70.1321 37.6217V10.5946H82V37.6217H70.1321Z" fill="#F9F5FF"/>
<path d="M70.021 7.41901V0H81.9999V7.41901H70.021Z" fill="#F9F5FF"/>
<path d="M110.125 31.2656V16.4277L115.854 10.5984H133.563V22.2569H122.104V25.4364H133.563V37.6248H116.375L110.125 31.2656Z" fill="#F9F5FF"/>
<path d="M136.688 37.625V0H148.667V10.5986H157.521L163.25 16.4278V37.625H151.791V22.2571H148.667V37.625H136.688Z" fill="#F9F5FF"/>
<path fill-rule="evenodd" clip-rule="evenodd" d="M123.994 44.915H156.86V51.4185H163.25V63.4965H156.86V70H123.994V44.915ZM143.855 47.6029L133.25 59.4287H139.437L137.669 67.3126L148.274 55.4868H142.088L143.855 47.6029Z" fill="#F9F5FF"/>
<path fill-rule="evenodd" clip-rule="evenodd" d="M104.793 69.9361C112.035 69.9361 117.396 64.7221 117.396 57.6558C117.396 50.5894 112.035 45.3754 104.793 45.3754C97.4823 45.3754 92.0864 50.5894 92.0864 57.6558C92.0864 64.7221 97.4823 69.9361 104.793 69.9361ZM104.759 64.7221C100.964 64.7221 98.2834 61.7034 98.2834 57.6558C98.2834 53.6081 100.964 50.5894 104.759 50.5894C108.518 50.5894 111.2 53.6081 111.2 57.6558C111.2 61.7034 108.518 64.7221 104.759 64.7221Z" fill="#F9F5FF"/>
<path d="M7.71279 69.6618H13.9097V50.8639H20.8725V45.65H0.75V50.8639H7.71279V69.6618Z" fill="#F9F5FF"/>
<path d="M43.4721 60.5372C43.4721 66.9519 39.3989 69.9362 33.5502 69.9362C27.7014 69.9362 23.5934 66.9519 23.5934 60.5372V45.65H29.3377V60.4687C29.3377 63.4873 31.1132 64.6535 33.5502 64.6535C35.9524 64.6535 37.7627 63.4873 37.7627 60.4687V45.65H43.4721V60.5372Z" fill="#F9F5FF"/>
<path fill-rule="evenodd" clip-rule="evenodd" d="M63.563 58.2047C65.0252 59.2337 65.9651 60.8117 66.174 62.7669L66.9399 69.6618H60.7082L59.9423 63.6588C59.7682 62.321 58.7238 61.4291 57.366 61.4291H53.4321V69.6618H47.2004V45.65H57.9231C63.2845 45.65 66.3481 48.943 66.3481 53.4366C66.3481 55.7349 65.3036 57.2785 63.563 58.2047ZM57.5053 50.6581H53.4321V56.2151H57.5053C59.4897 56.2151 60.4297 54.9117 60.4297 53.4366C60.4297 51.9616 59.4897 50.6581 57.5053 50.6581Z" fill="#F9F5FF"/>
<path fill-rule="evenodd" clip-rule="evenodd" d="M81.065 69.6618H70.7948V45.65H80.8909C85.2426 45.65 88.7591 47.7767 88.7591 51.8244C88.7591 54.0884 87.4014 55.8035 86.0437 56.5582C88.1668 57.4501 90.0469 59.371 90.0469 62.4239C90.0469 67.0891 86.2525 69.6618 81.065 69.6618ZM76.8873 50.3837V54.5H80.3687C82.3184 54.5 83.1187 53.6767 83.1187 52.4418C83.1187 51.207 82.3184 50.3837 80.2294 50.3837H76.8873ZM76.8873 59.5768V64.4477H80.6124C83.2235 64.4477 84.2676 63.6245 84.2676 62.0465C84.2676 60.4687 83.2235 59.5768 80.6124 59.5768H76.8873Z" fill="#F9F5FF"/>
</svg>
